custom-analysis
version=1
nRows=4
nColumns=98
inDegrees=no

This file contains tibia displacement and acting force.

Units are S.I. units (seconds, meters, Newtons, ...)
Angles are in degrees.

endheader
time	APT	SIT	knee_angle	aACL_R_force	pACL_R_force	aPCL_R_force	pPCL_R_force	aMCL_R_force	mMCL_R_force	pMCL_R_force	aLCL_R_force	mLCL_R_force	pLCL_R_force	aPCL_L_force	pPCL_L_force	aMCL_L_force	aLCL_L_force	aACL_R_length	pACL_R_length	aPCL_R_length	pPCL_R_length	aMCL_R_length	mMCL_R_length	pMCL_R_length	aLCL_R_length	mLCL_R_length	pLCL_R_length	aPCL_L_length	pPCL_L_length	aMCL_L_length	aLCL_L_length	aACL_R_strain	pACL_R_strain	aPCL_R_strain	pPCL_R_strain	aMCL_R_strain	mMCL_R_strain	pMCL_R_strain	aLCL_R_strain	mLCL_R_strain	pLCL_R_strain	aPCL_L_strain	pPCL_L_strain	aMCL_L_strain	aLCL_L_strain	femur_lat_meniscii_r.femur_lat_r.force.X	femur_lat_meniscii_r.femur_lat_r.force.Y	femur_lat_meniscii_r.femur_lat_r.force.Z	femur_lat_meniscii_r.femur_lat_r.torque.X	femur_lat_meniscii_r.femur_lat_r.torque.Y	femur_lat_meniscii_r.femur_lat_r.torque.Z	femur_lat_meniscii_r.meniscus_lat_r.force.X	femur_lat_meniscii_r.meniscus_lat_r.force.Y	femur_lat_meniscii_r.meniscus_lat_r.force.Z	femur_lat_meniscii_r.meniscus_lat_r.torque.X	femur_lat_meniscii_r.meniscus_lat_r.torque.Y	femur_lat_meniscii_r.meniscus_lat_r.torque.Z	femur_med_meniscii_r.femur_med_r.force.X	femur_med_meniscii_r.femur_med_r.force.Y	femur_med_meniscii_r.femur_med_r.force.Z	femur_med_meniscii_r.femur_med_r.torque.X	femur_med_meniscii_r.femur_med_r.torque.Y	femur_med_meniscii_r.femur_med_r.torque.Z	femur_med_meniscii_r.meniscus_med_r.force.X	femur_med_meniscii_r.meniscus_med_r.force.Y	femur_med_meniscii_r.meniscus_med_r.force.Z	femur_med_meniscii_r.meniscus_med_r.torque.X	femur_med_meniscii_r.meniscus_med_r.torque.Y	femur_med_meniscii_r.meniscus_med_r.torque.Z	femur_med_tibia_r.tibia_upper_r.force.X	femur_med_tibia_r.tibia_upper_r.force.Y	femur_med_tibia_r.tibia_upper_r.force.Z	femur_med_tibia_r.tibia_upper_r.torque.X	femur_med_tibia_r.tibia_upper_r.torque.Y	femur_med_tibia_r.tibia_upper_r.torque.Z	femur_med_tibia_r.femur_med_r.force.X	femur_med_tibia_r.femur_med_r.force.Y	femur_med_tibia_r.femur_med_r.force.Z	femur_med_tibia_r.femur_med_r.torque.X	femur_med_tibia_r.femur_med_r.torque.Y	femur_med_tibia_r.femur_med_r.torque.Z	femur_lat_tibia_r.tibia_upper_r.force.X	femur_lat_tibia_r.tibia_upper_r.force.Y	femur_lat_tibia_r.tibia_upper_r.force.Z	femur_lat_tibia_r.tibia_upper_r.torque.X	femur_lat_tibia_r.tibia_upper_r.torque.Y	femur_lat_tibia_r.tibia_upper_r.torque.Z	femur_lat_tibia_r.femur_lat_r.force.X	femur_lat_tibia_r.femur_lat_r.force.Y	femur_lat_tibia_r.femur_lat_r.force.Z	femur_lat_tibia_r.femur_lat_r.torque.X	femur_lat_tibia_r.femur_lat_r.torque.Y	femur_lat_tibia_r.femur_lat_r.torque.Z	femur_lat_meniscii_force_r	femur_med_meniscii_force_r	femur_lat_tibia_force_r	femur_med_tibia_force_r
      0.20894431	      0.01347783	      0.02615818	     81.38180059	      0.00000000	      0.00000000	    976.77498278	    634.63584407	     33.08195796	     20.28045221	      0.00000000	      0.00000000	      0.00000000	      0.00000000	      0.00000000	      0.00000000	      0.00000001	      0.00000000	      0.03098885	      0.02440877	      0.03718609	      0.03396215	      0.06149814	      0.05992779	      0.05656546	      0.05013123	      0.04469914	      0.03972449	      0.01525851	      0.01651186	      0.06550154	      0.04489616	     -0.00053698	     -0.02593649	      0.19587500	      0.13632164	      0.02450790	      0.00224591	     -0.03682300	     -0.10443483	     -0.20631648	     -0.24106907	      0.00000079	     -0.32847694	      0.00000060	     -0.00000086	     83.07642915	     65.47616592	     12.68932499	     -6.60305445	      1.99774706	     32.77872284	    -83.07642915	    -65.47616592	    -12.68932499	      1.77783184	     -2.56880037	      1.75838971	      0.04727278	      0.00159124	     -0.03000034	      0.01194972	     -0.00073815	      0.01878986	     -0.04727278	     -0.00159124	      0.03000034	     -0.00011472	      0.00142272	     -0.00010465	   -896.16705395	   -392.20193856	    307.91930306	     -8.38643691	     21.48079171	      3.15047676	    896.16705395	    392.20193856	   -307.91930306	    130.88577041	    -15.57682756	    360.89104933	   -327.48540626	   -159.29243427	    -97.61871855	      5.20663783	    -11.68155770	      1.60363371	    327.48540626	    159.29243427	     97.61871855	    -43.26760521	      8.13951952	    131.86084363	    106.53562949	      0.05601132	    377.02809596	   1025.54963137
      0.20897477	      0.01347604	      0.02616365	     81.39846918	      0.00000000	      0.00000000	    977.54698452	    636.01331252	     33.55903731	     20.83828156	      0.00000000	      0.00000000	      0.00000000	      0.00000000	      0.00000000	      0.00000000	      0.00000001	      0.00000000	      0.03098865	      0.02440956	      0.03718817	      0.03396398	      0.06149937	      0.05992865	      0.05656660	      0.05013020	      0.04469793	      0.03972366	      0.01525851	      0.01651186	      0.06550154	      0.04489616	     -0.00054360	     -0.02590464	      0.19594182	      0.13638290	      0.02452841	      0.00226035	     -0.03680349	     -0.10445326	     -0.20633806	     -0.24108507	      0.00000079	     -0.32847694	      0.00000060	     -0.00000086	     81.56877054	     65.06386001	     12.74168098	     -6.61491810	      1.96251845	     32.17289813	    -81.56877054	    -65.06386001	    -12.74168098	      1.76787090	     -2.53092908	      1.75909806	      0.04584198	      0.00160456	     -0.02912901	      0.01160319	     -0.00071610	      0.01822053	     -0.04584198	     -0.00160456	      0.02912901	     -0.00011160	      0.00138100	     -0.00009893	   -893.09275172	   -391.49688989	    306.59898796	     -8.35736659	     21.39636091	      3.17403884	    893.09275172	    391.49688989	   -306.59898796	    130.33592273	    -15.51931624	    359.64193066	   -326.56797075	   -158.89409003	    -97.92582404	      5.20086496	    -11.67251699	      1.60505935	    326.56797075	    158.89409003	     97.92582404	    -43.38452524	      8.12432022	    131.48902568	    105.11479744	      0.05433747	    376.14284305	   1022.19734757
      0.20905556	      0.01347128	      0.02617812	     81.44267736	      0.00000000	      0.00000000	    978.35423788	    636.25748014	     33.51137257	     20.72096658	      0.00000000	      0.00000000	      0.00000000	      0.00000000	      0.00000000	      0.00000000	      0.00000001	      0.00000000	      0.03098812	      0.02441171	      0.03719370	      0.03396886	      0.06150265	      0.05993097	      0.05656967	      0.05012749	      0.04469473	      0.03972147	      0.01525851	      0.01651186	      0.06550154	      0.04489616	     -0.00056048	     -0.02581911	      0.19611972	      0.13654604	      0.02458316	      0.00229904	     -0.03675132	     -0.10450166	     -0.20639478	     -0.24112686	      0.00000079	     -0.32847694	      0.00000060	     -0.00000086	     81.68717353	     64.90163606	     12.40469676	     -6.47595407	      1.96200278	     32.22119415	    -81.68717353	    -64.90163606	    -12.40469676	      1.76122339	     -2.52174010	      1.75471830	      0.04471045	      0.00155677	     -0.02845306	      0.01133368	     -0.00069874	      0.01777063	     -0.04471045	     -0.00155677	      0.02845306	     -0.00010837	      0.00134855	     -0.00009588	   -886.98855427	   -387.27030506	    305.42241766	     -8.28639262	     21.28388131	      3.11898791	    886.98855427	    387.27030506	   -305.42241766	    129.79421672	    -15.42079006	    357.19068160	   -325.27432174	   -156.41276558	    -97.27327466	      5.13138537	    -11.61650374	      1.53476588	    325.27432174	    156.41276558	     97.27327466	    -43.06579730	      8.08865757	    130.98765955	    105.06613719	      0.05301910	    373.80533380	   1014.89400323
      0.20926907	      0.01345913	      0.02621659	     81.55958472	      0.00000000	      0.00000000	    979.60857168	    634.71675689	     32.18545514	     19.10752768	      0.00000000	      0.00000000	      0.00000000	      0.00000000	      0.00000000	      0.00000000	      0.00000001	      0.00000000	      0.03098698	      0.02441752	      0.03720787	      0.03398126	      0.06151112	      0.05993681	      0.05657746	      0.05012006	      0.04468601	      0.03971537	      0.01525851	      0.01651186	      0.06550154	      0.04489616	     -0.00059744	     -0.02558697	      0.19657524	      0.13696089	      0.02472420	      0.00239678	     -0.03661857	     -0.10463447	     -0.20654972	     -0.24124337	      0.00000079	     -0.32847694	      0.00000060	     -0.00000086	     84.61993872	     65.45958175	     11.09518379	     -5.96001558	      2.01598968	     33.39736452	    -84.61993872	    -65.45958175	    -11.09518379	      1.76296482	     -2.54860971	      1.75475828	      0.03980705	     -0.00063808	     -0.02515739	      0.01000017	     -0.00062045	      0.01583857	     -0.03980705	      0.00063808	      0.02515739	     -0.00007958	      0.00119458	     -0.00015557	   -873.92459674	   -376.18438765	    303.28633141	     -8.11181151	     21.05721532	      2.93521920	    873.92459674	    376.18438765	   -303.28633141	    128.75981591	    -15.21324420	    351.96263851	   -322.07557680	   -152.27290969	    -94.77601761	      4.98944782	    -11.44378185	      1.44210316	    322.07557680	    152.27290969	     94.77601761	    -41.95369295	      7.98999884	    129.72186079	    107.55739852	      0.04709462	    368.64916887	    998.61979408
